<svg id="svg" version="1.1" xmlns="http://www.w3.org/2000/svg" xmlns:xlink="http://www.w3.org/1999/xlink" width="400" height="400" viewBox="0, 0, 400,400"><g id="svgg"><path id="path0" d="M177.800 143.409 C 176.700 143.715,175.680 143.973,175.532 143.982 C 172.306 144.195,163.600 160.974,163.600 166.979 C 163.600 170.456,160.084 179.932,157.460 183.530 C 156.710 184.558,155.330 186.930,154.394 188.800 C 148.437 200.702,142.112 204.088,126.200 203.895 C 113.948 203.746,112.719 205.469,117.821 215.642 C 119.153 218.298,120.970 221.113,122.609 223.061 C 129.216 230.913,129.134 233.506,121.898 245.508 C 120.671 247.544,117.925 252.762,115.796 257.105 C 110.412 268.089,109.235 270.364,107.980 272.210 C 106.601 274.239,98.394 282.334,96.000 284.026 C 91.139 287.463,89.311 290.272,87.627 296.896 C 86.985 299.417,86.177 302.160,85.830 302.991 C 83.985 307.407,83.944 308.434,85.377 314.343 C 88.329 326.517,89.658 341.969,88.182 346.973 C 86.855 351.471,87.662 356.292,90.658 361.760 C 93.424 366.807,96.544 368.129,105.800 368.176 L 110.600 368.200 114.741 366.100 C 117.434 364.734,119.392 363.996,120.341 363.987 C 127.398 363.926,132.138 362.183,134.761 358.683 C 138.124 354.196,145.644 338.887,147.377 333.000 C 152.415 315.883,164.622 301.088,173.761 301.023 C 183.123 300.956,188.000 307.583,186.624 318.504 C 185.679 326.007,192.647 323.013,196.176 314.400 C 196.762 312.970,197.793 310.270,198.467 308.400 C 200.721 302.148,204.914 294.628,208.375 290.628 C 210.124 288.609,210.974 286.354,211.632 282.000 C 211.882 280.350,212.684 277.650,213.415 276.000 C 214.147 274.350,215.472 271.323,216.362 269.273 C 217.294 267.124,218.678 264.754,219.630 263.673 C 222.858 260.012,224.594 255.440,224.986 249.568 C 225.613 240.150,223.297 238.935,219.965 246.936 C 213.730 261.913,206.461 267.237,191.200 268.009 C 181.251 268.512,171.433 271.907,160.957 278.470 C 156.843 281.046,156.302 280.437,157.632 274.727 C 159.205 267.972,161.443 265.374,168.613 261.981 C 176.290 258.348,177.347 256.539,180.029 242.432 C 182.956 227.038,187.129 223.090,197.906 225.520 C 200.052 226.004,202.616 226.400,203.604 226.401 C 204.592 226.401,206.930 226.671,208.800 227.000 C 217.014 228.447,220.421 227.802,223.132 224.288 C 227.191 219.027,224.089 215.817,213.000 213.804 C 203.129 212.012,199.912 207.819,192.900 187.602 C 186.994 170.578,186.582 161.479,191.396 154.434 C 192.086 153.425,193.134 151.900,193.725 151.044 C 197.875 145.038,188.361 140.477,177.800 143.409 M132.241 311.022 C 132.845 313.427,131.095 318.021,128.489 320.870 C 125.514 324.123,124.980 325.978,125.792 330.225 C 126.677 334.852,125.586 339.141,122.305 343.930 C 117.937 350.307,112.800 346.996,112.800 337.805 C 112.800 336.400,112.514 334.023,112.164 332.525 C 110.780 326.600,113.150 321.273,118.512 318.255 C 119.881 317.485,123.154 315.313,125.787 313.428 C 130.924 309.749,131.837 309.409,132.241 311.022 M98.048 374.752 C 96.990 375.810,96.860 379.336,97.826 380.716 C 99.538 383.161,108.204 384.280,111.887 382.532 C 114.340 381.368,115.782 377.922,114.732 375.734 L 114.188 374.600 108.394 374.595 C 105.207 374.592,101.767 374.436,100.748 374.247 C 99.129 373.948,98.789 374.011,98.048 374.752 " stroke="none" fill="#f9f8f8" fill-rule="evenodd"></path><path id="path1" d="M62.617 0.292 C 59.952 0.969,58.800 2.921,58.800 6.760 C 58.800 9.550,59.459 13.620,59.971 14.000 C 60.120 14.110,60.555 15.036,60.938 16.059 C 61.321 17.081,61.999 18.337,62.443 18.850 C 62.888 19.363,63.457 20.551,63.709 21.491 C 63.960 22.431,64.289 23.200,64.438 23.200 C 64.799 23.200,65.061 24.731,65.805 31.200 C 66.147 34.170,66.593 37.140,66.797 37.800 C 67.001 38.460,67.475 40.763,67.850 42.917 C 68.225 45.072,68.682 46.927,68.866 47.041 C 69.050 47.154,69.204 48.182,69.208 49.324 C 69.218 52.088,70.280 59.964,70.720 60.542 C 70.913 60.794,71.493 62.170,72.010 63.600 C 72.526 65.030,73.070 66.290,73.217 66.400 C 73.364 66.510,73.710 67.320,73.987 68.200 C 74.263 69.080,74.711 70.160,74.983 70.600 C 75.255 71.040,75.803 72.386,76.201 73.591 C 76.599 74.796,77.167 76.024,77.462 76.319 C 77.758 76.615,78.000 77.045,78.000 77.275 C 78.000 77.505,78.630 78.551,79.400 79.600 C 80.170 80.649,80.800 81.699,80.800 81.934 C 80.800 82.168,81.044 82.504,81.342 82.680 C 81.639 82.856,82.110 83.450,82.387 84.000 C 83.125 85.465,85.751 89.378,86.100 89.533 C 86.265 89.607,86.400 89.853,86.400 90.080 C 86.400 90.307,87.030 91.351,87.800 92.400 C 88.570 93.449,89.200 94.474,89.200 94.678 C 89.200 94.882,89.515 95.398,89.900 95.825 C 90.285 96.251,90.956 97.275,91.391 98.100 C 91.826 98.925,92.299 99.600,92.442 99.600 C 92.586 99.600,92.933 100.155,93.214 100.834 C 93.495 101.513,93.922 102.278,94.163 102.534 C 94.403 102.790,95.093 103.726,95.695 104.614 C 96.742 106.158,100.293 109.200,101.047 109.200 C 101.245 109.200,101.632 109.560,101.907 110.000 C 102.182 110.440,102.630 110.800,102.903 110.800 C 103.177 110.801,103.917 111.245,104.548 111.788 C 105.179 112.331,106.214 113.005,106.848 113.285 C 107.482 113.566,108.000 113.907,108.000 114.043 C 108.000 114.180,108.838 114.611,109.862 115.003 C 110.887 115.394,112.178 116.093,112.733 116.557 C 115.680 119.022,121.469 126.093,121.810 127.645 C 121.949 128.280,122.209 128.800,122.387 128.800 C 122.956 128.800,123.955 133.676,124.181 137.559 C 124.301 139.626,124.563 141.516,124.762 141.759 C 124.962 142.001,125.348 143.338,125.620 144.729 C 125.893 146.120,126.315 147.470,126.559 147.729 C 126.803 147.988,127.361 148.920,127.801 149.800 C 128.240 150.680,128.737 151.502,128.905 151.627 C 129.073 151.752,129.572 153.192,130.015 154.827 C 130.457 156.462,131.040 158.233,131.309 158.762 C 131.878 159.877,131.900 165.555,131.338 165.940 C 131.129 166.083,130.645 167.036,130.262 168.059 C 129.879 169.081,129.213 170.324,128.783 170.820 C 128.352 171.316,128.000 171.906,128.000 172.130 C 128.000 172.354,124.490 176.028,120.200 180.296 C 115.910 184.563,112.400 188.210,112.400 188.399 C 112.400 188.588,112.175 188.981,111.900 189.271 C 109.708 191.589,106.570 196.524,105.947 198.633 C 105.660 199.605,105.292 200.400,105.128 200.400 C 104.420 200.400,103.876 204.241,103.774 209.957 C 103.714 213.343,103.504 216.223,103.309 216.357 C 103.114 216.490,102.715 217.230,102.422 218.000 C 102.130 218.770,101.488 219.760,100.996 220.200 C 99.221 221.789,98.698 224.456,99.567 227.485 C 99.942 228.791,102.276 232.000,102.852 232.000 C 103.556 232.000,106.414 235.438,106.821 236.774 C 107.060 237.558,107.409 238.560,107.597 239.000 C 107.785 239.440,108.250 241.150,108.630 242.800 C 109.011 244.450,109.454 245.890,109.616 246.000 C 111.124 247.023,111.105 259.200,109.596 259.200 C 109.426 259.200,109.165 259.695,109.015 260.300 C 107.690 265.672,100.723 275.517,96.348 278.200 C 93.799 279.763,85.001 288.493,84.432 290.024 C 84.036 291.090,82.020 293.282,80.224 294.600 C 78.245 296.052,74.003 300.191,74.001 300.671 C 74.001 300.931,73.725 301.418,73.388 301.755 C 71.594 303.548,71.397 314.391,73.137 315.582 C 73.312 315.702,73.774 316.609,74.164 317.599 C 74.554 318.588,74.993 319.488,75.140 319.599 C 75.286 319.709,75.750 320.790,76.170 322.000 C 76.590 323.210,77.057 324.290,77.208 324.400 C 77.358 324.510,77.856 325.590,78.314 326.800 C 78.772 328.010,79.692 329.990,80.358 331.200 C 83.325 336.586,83.800 338.935,83.142 344.976 C 82.285 352.842,83.262 359.086,86.415 365.896 C 86.847 366.828,87.200 367.694,87.200 367.819 C 87.200 367.944,87.785 368.775,88.500 369.665 L 89.800 371.284 89.800 375.979 C 89.800 378.792,89.977 380.900,90.241 381.237 C 90.483 381.547,91.014 382.745,91.420 383.900 C 91.826 385.055,92.285 386.000,92.440 386.000 C 92.595 386.000,92.907 386.531,93.133 387.180 C 93.778 389.031,96.064 391.839,97.590 392.656 C 98.355 393.065,99.255 393.641,99.590 393.936 C 100.767 394.972,104.474 397.132,105.527 397.396 C 106.113 397.543,106.684 397.811,106.796 397.991 C 108.206 400.256,130.800 400.229,130.800 397.962 C 130.800 397.802,131.475 397.551,132.300 397.406 C 133.125 397.260,134.430 396.804,135.200 396.392 C 135.970 395.981,137.000 395.460,137.489 395.236 C 138.662 394.698,141.940 392.425,143.200 391.277 C 146.962 387.848,149.201 385.635,149.204 385.342 C 149.207 385.154,149.925 384.100,150.800 383.000 C 151.675 381.900,152.393 380.775,152.396 380.500 C 152.398 380.225,152.547 380.000,152.727 380.000 C 153.174 380.000,155.723 374.455,156.955 370.800 C 158.048 367.558,158.796 362.926,158.538 361.000 C 158.271 359.008,158.858 358.546,160.602 359.374 C 164.246 361.103,181.832 360.984,184.200 359.214 C 184.420 359.050,185.500 358.698,186.600 358.431 C 190.099 357.585,196.554 352.392,200.110 347.564 C 201.710 345.392,203.600 342.394,203.600 342.030 C 203.600 341.815,203.846 341.496,204.146 341.320 C 204.446 341.144,205.005 340.387,205.388 339.638 C 207.074 336.341,211.843 331.618,213.500 331.604 C 213.775 331.602,214.000 331.456,214.000 331.280 C 214.000 331.104,214.765 330.564,215.700 330.081 C 218.965 328.395,222.762 325.840,223.600 324.764 C 223.710 324.623,224.520 324.121,225.400 323.650 C 227.106 322.735,227.622 322.425,230.320 320.700 C 231.266 320.095,232.211 319.600,232.420 319.600 C 232.629 319.600,233.127 319.285,233.526 318.900 C 233.926 318.515,234.871 317.852,235.626 317.427 C 236.872 316.727,239.511 314.810,240.619 313.800 C 240.861 313.580,241.747 312.860,242.588 312.200 C 243.430 311.540,244.857 310.419,245.759 309.708 C 246.662 308.997,248.811 307.107,250.535 305.508 C 255.195 301.185,255.357 301.049,256.559 300.414 C 257.824 299.746,262.000 295.718,262.000 295.165 C 262.000 294.964,262.281 294.485,262.625 294.100 C 263.688 292.909,265.004 290.682,265.754 288.801 C 266.149 287.812,266.600 286.912,266.756 286.801 C 267.149 286.522,268.400 281.826,268.400 280.630 C 268.400 280.089,268.580 279.536,268.800 279.400 C 269.321 279.078,269.333 265.829,268.814 264.895 C 268.601 264.513,268.228 263.165,267.985 261.900 C 267.742 260.635,267.314 259.372,267.035 259.092 C 266.755 258.812,266.124 257.509,265.633 256.196 C 265.142 254.884,264.578 253.615,264.381 253.377 C 264.184 253.139,263.733 251.699,263.380 250.176 C 263.027 248.653,262.590 247.225,262.409 247.003 C 260.532 244.699,260.616 218.385,262.512 214.477 C 263.130 213.203,263.158 198.060,262.544 196.763 C 262.293 196.234,261.883 195.043,261.633 194.118 C 261.383 193.193,260.958 192.203,260.689 191.918 C 260.216 191.418,259.067 189.382,257.125 185.600 C 256.616 184.610,256.055 183.693,255.878 183.563 C 254.866 182.817,255.116 178.998,256.257 177.759 C 256.886 177.076,257.940 175.856,258.600 175.047 C 259.260 174.238,260.174 173.156,260.632 172.641 C 261.090 172.126,262.305 170.636,263.332 169.328 C 266.020 165.907,268.250 164.490,274.200 162.425 C 275.520 161.966,276.660 161.413,276.733 161.196 C 276.807 160.978,277.039 160.800,277.251 160.800 C 277.668 160.800,282.222 157.998,283.210 157.134 C 283.545 156.840,284.490 156.244,285.310 155.809 C 286.129 155.374,286.800 154.900,286.800 154.755 C 286.800 154.610,287.430 154.192,288.200 153.827 C 288.970 153.461,289.600 152.991,289.600 152.781 C 289.600 152.572,289.783 152.400,290.006 152.400 C 290.569 152.400,296.000 148.696,296.000 148.312 C 296.000 148.140,296.234 148.000,296.519 148.000 C 296.805 148.000,297.750 147.181,298.619 146.179 C 299.489 145.177,301.190 143.318,302.400 142.047 C 305.264 139.038,307.604 136.249,308.591 134.667 C 309.027 133.970,309.792 132.952,310.291 132.404 C 310.791 131.856,311.200 131.247,311.200 131.050 C 311.200 130.853,311.605 130.297,312.100 129.814 C 312.595 129.331,313.359 128.501,313.799 127.968 C 314.238 127.436,315.201 126.280,315.939 125.400 C 316.677 124.520,317.848 123.103,318.540 122.251 C 319.233 121.400,320.205 120.332,320.700 119.879 C 321.195 119.426,321.600 118.916,321.600 118.746 C 321.600 118.576,322.519 117.213,323.643 115.718 C 324.766 114.223,325.783 112.730,325.902 112.400 C 326.022 112.070,326.428 111.440,326.806 111.000 C 327.184 110.560,327.823 109.300,328.226 108.200 C 328.629 107.100,329.103 106.099,329.279 105.977 C 329.455 105.854,329.900 104.234,330.268 102.377 C 330.636 100.519,331.057 98.910,331.204 98.800 C 331.351 98.690,331.799 96.980,332.200 95.000 C 332.601 93.020,333.060 91.220,333.221 91.000 C 333.641 90.423,334.727 84.904,335.046 81.722 C 335.196 80.225,335.448 78.910,335.606 78.800 C 335.764 78.690,336.223 75.900,336.627 72.600 C 337.030 69.300,337.479 66.510,337.624 66.400 C 338.007 66.109,338.781 59.441,339.205 52.783 C 339.408 49.603,339.768 44.660,340.005 41.800 C 340.862 31.450,340.728 20.467,339.720 18.365 C 336.894 12.475,333.531 14.240,320.879 28.251 C 318.079 31.352,318.153 31.260,315.180 35.339 C 312.238 39.375,308.244 43.599,307.366 43.601 C 306.676 43.603,302.198 46.792,299.925 48.900 C 299.272 49.505,298.639 50.000,298.518 50.000 C 298.396 50.000,297.632 50.585,296.819 51.300 C 296.005 52.015,294.204 53.590,292.817 54.800 C 291.429 56.010,289.165 58.102,287.785 59.450 C 286.406 60.797,284.585 62.416,283.739 63.048 C 282.892 63.679,282.110 64.312,282.000 64.454 C 281.890 64.596,281.047 65.104,280.127 65.582 C 279.207 66.061,278.240 66.711,277.978 67.026 C 277.716 67.342,277.340 67.600,277.141 67.600 C 276.731 67.600,273.139 69.971,271.523 71.308 C 270.930 71.799,270.030 72.508,269.523 72.884 C 269.015 73.261,267.743 74.206,266.697 74.984 C 265.650 75.763,264.660 76.408,264.497 76.418 C 264.333 76.429,263.570 77.163,262.800 78.051 C 262.030 78.939,261.038 80.066,260.596 80.555 C 259.887 81.339,257.552 84.268,255.776 86.600 C 255.441 87.040,254.409 88.570,253.483 90.000 C 252.558 91.430,251.501 92.931,251.136 93.336 C 250.525 94.015,249.293 96.380,246.634 101.979 C 246.065 103.177,245.600 104.482,245.600 104.879 C 245.600 105.275,245.435 105.600,245.233 105.600 C 245.031 105.600,244.467 106.815,243.979 108.300 C 243.492 109.785,242.957 111.180,242.790 111.400 C 242.623 111.620,242.165 112.970,241.772 114.400 C 241.379 115.830,240.950 117.090,240.818 117.200 C 240.686 117.310,240.241 118.165,239.828 119.100 C 239.416 120.035,238.930 120.800,238.750 120.800 C 238.569 120.800,238.164 121.295,237.851 121.900 C 237.537 122.505,236.857 123.480,236.340 124.067 C 234.368 126.304,233.011 128.364,231.200 131.866 C 230.651 132.930,230.074 133.896,229.918 134.013 C 229.613 134.242,228.400 138.626,228.400 139.498 C 228.400 139.790,228.110 140.470,227.756 141.010 L 227.113 141.992 225.956 141.169 C 225.320 140.716,224.800 140.120,224.800 139.845 C 224.800 139.570,224.395 138.954,223.900 138.478 C 223.405 138.001,222.550 137.035,222.000 136.330 C 220.155 133.967,214.683 128.503,213.435 127.779 C 212.756 127.385,212.056 126.823,211.880 126.531 C 211.704 126.239,211.391 126.000,211.184 126.000 C 210.976 126.000,209.950 125.354,208.903 124.565 C 207.857 123.776,206.462 122.741,205.804 122.265 C 205.147 121.789,204.162 120.905,203.615 120.300 C 203.069 119.695,202.490 119.200,202.329 119.200 C 202.167 119.200,201.387 118.760,200.595 118.222 C 199.708 117.620,198.009 117.052,196.177 116.744 C 194.540 116.469,193.200 116.099,193.200 115.922 C 193.200 115.480,185.053 115.513,184.580 115.957 C 184.371 116.153,183.092 116.388,181.738 116.479 C 179.352 116.640,168.400 121.504,168.400 122.402 C 168.400 123.833,164.972 123.703,164.420 122.252 C 164.217 121.720,163.861 121.220,163.627 121.142 C 163.394 121.064,162.837 118.402,162.390 115.227 C 161.943 112.052,161.433 109.262,161.258 109.027 C 161.083 108.792,160.597 107.160,160.180 105.400 C 159.762 103.640,159.311 102.110,159.176 102.000 C 159.042 101.890,158.555 100.360,158.093 98.600 C 157.077 94.724,155.204 89.574,154.578 88.933 C 154.328 88.675,153.891 87.640,153.609 86.633 C 153.327 85.625,152.952 84.800,152.775 84.800 C 152.598 84.800,152.328 84.395,152.175 83.900 C 151.731 82.470,148.710 75.821,148.404 75.600 C 148.251 75.490,147.804 74.545,147.409 73.500 C 147.014 72.455,146.571 71.600,146.425 71.600 C 146.278 71.600,145.831 70.692,145.432 69.582 C 145.033 68.472,144.496 67.347,144.238 67.082 C 143.980 66.817,143.454 65.970,143.067 65.200 C 142.681 64.430,141.641 62.810,140.755 61.600 C 139.869 60.390,138.844 58.950,138.477 58.400 C 138.111 57.850,137.583 57.162,137.305 56.871 C 137.027 56.581,136.800 56.210,136.800 56.047 C 136.800 55.884,136.395 55.318,135.900 54.790 C 135.405 54.261,134.820 53.542,134.600 53.192 C 132.731 50.217,131.430 48.400,131.167 48.400 C 130.995 48.400,130.732 48.016,130.583 47.547 C 130.310 46.686,124.863 41.082,121.579 38.284 C 119.177 36.237,116.571 33.960,114.402 32.013 C 113.413 31.126,112.477 30.400,112.320 30.400 C 112.061 30.400,111.194 29.664,108.986 27.572 C 108.538 27.147,107.955 26.800,107.689 26.800 C 107.424 26.800,106.982 26.440,106.707 26.000 C 106.432 25.560,106.052 25.200,105.861 25.200 C 105.438 25.200,101.778 22.392,100.396 21.006 C 99.843 20.453,99.244 20.000,99.064 20.000 C 98.884 20.000,98.076 19.319,97.269 18.487 C 96.461 17.655,94.360 16.132,92.600 15.104 C 89.028 13.017,89.331 13.227,86.515 10.900 C 85.383 9.965,84.286 9.200,84.077 9.200 C 83.869 9.200,83.477 8.934,83.207 8.608 C 82.937 8.283,82.240 7.762,81.658 7.451 C 81.076 7.140,79.610 6.325,78.400 5.641 C 77.190 4.956,75.210 3.935,74.000 3.371 C 72.790 2.808,71.350 2.107,70.800 1.815 C 68.251 0.459,64.620 -0.217,62.617 0.292 M191.472 143.635 C 194.921 145.304,195.767 148.089,193.725 151.044 C 193.134 151.900,192.086 153.425,191.396 154.434 C 186.582 161.479,186.994 170.578,192.900 187.602 C 199.912 207.819,203.129 212.012,213.000 213.804 C 224.089 215.817,227.191 219.027,223.132 224.288 C 220.421 227.802,217.014 228.447,208.800 227.000 C 206.930 226.671,204.592 226.401,203.604 226.401 C 202.616 226.400,200.052 226.004,197.906 225.520 C 187.129 223.090,182.956 227.038,180.029 242.432 C 177.347 256.539,176.290 258.348,168.613 261.981 C 161.443 265.374,159.205 267.972,157.632 274.727 C 156.302 280.437,156.843 281.046,160.957 278.470 C 171.433 271.907,181.251 268.512,191.200 268.009 C 206.461 267.237,213.730 261.913,219.965 246.936 C 223.297 238.935,225.613 240.150,224.986 249.568 C 224.594 255.440,222.858 260.012,219.630 263.673 C 218.678 264.754,217.294 267.124,216.362 269.273 C 215.472 271.323,214.147 274.350,213.415 276.000 C 212.684 277.650,211.882 280.350,211.632 282.000 C 210.974 286.354,210.124 288.609,208.375 290.628 C 204.914 294.628,200.721 302.148,198.467 308.400 C 197.793 310.270,196.762 312.970,196.176 314.400 C 192.647 323.013,185.679 326.007,186.624 318.504 C 188.000 307.583,183.123 300.956,173.761 301.023 C 164.622 301.088,152.415 315.883,147.377 333.000 C 145.644 338.887,138.124 354.196,134.761 358.683 C 132.138 362.183,127.398 363.926,120.341 363.987 C 119.392 363.996,117.434 364.734,114.741 366.100 L 110.600 368.200 105.800 368.176 C 96.544 368.129,93.424 366.807,90.658 361.760 C 87.662 356.292,86.855 351.471,88.182 346.973 C 89.658 341.969,88.329 326.517,85.377 314.343 C 83.944 308.434,83.985 307.407,85.830 302.991 C 86.177 302.160,86.985 299.417,87.627 296.896 C 89.311 290.272,91.139 287.463,96.000 284.026 C 98.394 282.334,106.601 274.239,107.980 272.210 C 109.235 270.364,110.412 268.089,115.796 257.105 C 117.925 252.762,120.671 247.544,121.898 245.508 C 129.134 233.506,129.216 230.913,122.609 223.061 C 120.970 221.113,119.153 218.298,117.821 215.642 C 112.719 205.469,113.948 203.746,126.200 203.895 C 142.112 204.088,148.437 200.702,154.394 188.800 C 155.330 186.930,156.710 184.558,157.460 183.530 C 160.084 179.932,163.600 170.456,163.600 166.979 C 163.600 160.974,172.306 144.195,175.532 143.982 C 175.680 143.973,176.700 143.715,177.800 143.409 C 181.151 142.479,189.364 142.614,191.472 143.635 M125.787 313.428 C 123.154 315.313,119.881 317.485,118.512 318.255 C 113.150 321.273,110.780 326.600,112.164 332.525 C 112.514 334.023,112.800 336.400,112.800 337.805 C 112.800 346.996,117.937 350.307,122.305 343.930 C 125.586 339.141,126.677 334.852,125.792 330.225 C 124.980 325.978,125.514 324.123,128.489 320.870 C 131.907 317.133,133.738 310.000,131.280 310.000 C 130.892 310.000,128.420 311.542,125.787 313.428 M108.394 374.595 L 114.188 374.600 114.732 375.734 C 115.782 377.922,114.340 381.368,111.887 382.532 C 109.723 383.559,102.112 383.478,100.010 382.405 C 95.556 380.133,96.164 373.399,100.748 374.247 C 101.767 374.436,105.207 374.592,108.394 374.595 " stroke="none" fill="#452300" fill-rule="evenodd"></path></g></svg>